<?xml version="1.0" standalone="no"?>
<!DOCTYPE svg PUBLIC "-//W3C//DTD SVG 20010904//EN"
 "http://www.w3.org/TR/2001/REC-SVG-20010904/DTD/svg10.dtd">
<svg version="1.0" xmlns="http://www.w3.org/2000/svg"
 width="800.000000pt" height="800.000000pt" viewBox="0 0 800.000000 800.000000"
 preserveAspectRatio="xMidYMid meet">
<metadata>
Created by potrace 1.14, written by Peter Selinger 2001-2017
</metadata>
<g transform="translate(0.000000,800.000000) scale(0.100000,-0.100000)"
fill="#000000" stroke="none">
<path d="M1069 7996 c-2 -2 -26 -7 -54 -10 -235 -31 -506 -173 -680 -358 -168
-177 -261 -360 -321 -628 -5 -19 -9 -1356 -11 -2970 -2 -2439 0 -2949 12
-3017 74 -446 384 -809 812 -952 49 -17 107 -33 129 -37 21 -3 59 -10 84 -15
56 -10 5912 -6 5960 5 269 60 449 152 629 321 65 61 166 189 213 270 64 112
125 283 145 410 10 63 11 5904 1 5965 -41 254 -173 508 -355 682 -68 65 -149
128 -163 128 -6 0 -10 4 -10 8 0 28 -314 162 -416 178 -21 3 -59 10 -84 14
-43 9 -5882 14 -5891 6z"/>
</g>
</svg>
